<?xml version="1.0" encoding="UTF-8"?>
<svg version="1.1" xmlns="http://www.w3.org/2000/svg" width="256" height="256">
<path d="M0 0 C1.39992187 1.04994141 1.39992187 1.04994141 2.828125 2.12109375 C22.79583777 17.76618713 37.87622738 41.45856501 41 67 C41.10828125 67.77859375 41.2165625 68.5571875 41.328125 69.359375 C44.75673079 97.69048601 37.06323098 125.63084357 19.48046875 148.0859375 C1.20765 169.55290252 -23.6346393 183.67125887 -52 186 C-81.81097531 187.77505927 -108.46552173 178.47488854 -131 159 C-132.13888672 158.01580078 -132.13888672 158.01580078 -133.30078125 157.01171875 C-151.20333365 140.25722582 -162.39632775 114.87030481 -163.37109375 90.5390625 C-163.87743752 62.145019 -157.49238643 39.42232896 -140 17 C-139.47792969 16.30519531 -138.95585937 15.61039063 -138.41796875 14.89453125 C-134.07268664 9.42223073 -128.49999231 5.24999406 -123 1 C-121.84371094 0.08541016 -121.84371094 0.08541016 -120.6640625 -0.84765625 C-85.98133089 -26.83011218 -34.34156765 -25.95019589 0 0 Z M-66.67797852 24.88037109 C-67.36715363 25.52335144 -68.05632874 26.16633179 -68.76638794 26.82879639 C-69.87202591 27.90354218 -69.87202591 27.90354218 -71 29 C-72.16715042 30.11897675 -72.16715042 30.11897675 -73.35787964 31.26055908 C-75.97471557 33.7933754 -78.56654316 36.34957669 -81.15234375 38.9140625 C-81.85106692 39.60667238 -81.85106692 39.60667238 -82.56390572 40.31327438 C-85.01889753 42.74760878 -87.47074745 45.18505852 -89.92016602 47.625 C-92.44254301 50.13621966 -94.97640752 52.63552104 -97.51285458 55.13251686 C-99.94296107 57.5302382 -102.35912329 59.94185492 -104.77734375 62.3515625 C-106.14281593 63.69077255 -106.14281593 63.69077255 -107.53587341 65.05703735 C-108.78836632 66.31391861 -108.78836632 66.31391861 -110.06616211 67.59619141 C-110.80370224 68.3278653 -111.54124237 69.05953918 -112.3011322 69.81338501 C-114.23114766 72.29751046 -114.79193727 73.8757138 -115 77 C-112.25266852 82.38019082 -107.68611661 87.34577964 -102.09375 89.85546875 C-99.0081341 90.06846836 -97.54048593 88.70359787 -95 87 C-93.50427363 85.64862299 -92.05323173 84.24655441 -90.64453125 82.8046875 C-89.85755859 82.00675781 -89.07058594 81.20882812 -88.25976562 80.38671875 C-87.45216797 79.55785156 -86.64457031 78.72898438 -85.8125 77.875 C-84.19622539 76.22439068 -82.57784126 74.57584351 -80.95703125 72.9296875 C-80.24522705 72.19991699 -79.53342285 71.47014648 -78.80004883 70.71826172 C-77 69 -77 69 -75 68 C-75.00666183 68.89313904 -75.01332367 69.78627808 -75.02018738 70.70648193 C-75.08029468 79.1228416 -75.12597248 87.53912919 -75.15543652 95.95565414 C-75.17109351 100.28270371 -75.19233229 104.60957594 -75.22631836 108.93652344 C-75.25891078 113.11216221 -75.27685276 117.28763038 -75.28463173 121.46338654 C-75.29017547 123.05660945 -75.30100105 124.64982302 -75.31719017 126.24297333 C-75.3389634 128.47436205 -75.34196705 130.7050456 -75.34057617 132.93652344 C-75.34723801 134.20671326 -75.35389984 135.47690308 -75.36076355 136.7855835 C-74.97430196 140.22897052 -74.4603351 141.60637967 -72 144 C-68.34149645 145.21950118 -64.93596431 145.22253359 -61.125 145.25 C-60.41730469 145.270625 -59.70960938 145.29125 -58.98046875 145.3125 C-54.43779545 145.34633742 -51.63860212 144.73932783 -48 142 C-46.66871888 140.89442383 -46.66871888 140.89442383 -46.87974548 138.10838318 C-46.88196609 136.81376663 -46.88418671 135.51915009 -46.88647461 134.18530273 C-46.88632858 133.47314606 -46.88618256 132.76098938 -46.8860321 132.0272522 C-46.8867313 129.66266888 -46.89452394 127.29816339 -46.90234375 124.93359375 C-46.90420791 123.29834537 -46.90563182 121.66309643 -46.90663147 120.02784729 C-46.91045682 115.71565215 -46.92028725 111.40349048 -46.93133545 107.09130859 C-46.9415492 102.69434054 -46.94612901 98.29736711 -46.95117188 93.90039062 C-46.96190951 85.26691169 -46.97898613 76.63346 -47 68 C-45.73630654 69.09292887 -44.47446329 70.1879972 -43.21337891 71.28393555 C-42.51048737 71.89351608 -41.80759583 72.50309662 -41.08340454 73.13114929 C-37.43930764 76.39996864 -34.09676546 79.96804836 -30.7578125 83.54492188 C-27.43486317 86.97675425 -24.84163361 89.02480571 -20 90 C-14.36374949 87.83221134 -9.13280767 82.53533145 -6.6875 77.0625 C-7.53711217 68.73630072 -17.05535477 61.66825981 -22.66796875 56.1015625 C-23.58459793 55.18539154 -24.50122711 54.26922058 -25.44563293 53.32528687 C-27.37139873 51.40107319 -29.30043938 49.48022904 -31.23217773 47.56201172 C-33.7053764 45.10590913 -36.17183302 42.64316696 -38.63611889 40.17812538 C-40.99811307 37.81646828 -43.36433753 35.45907501 -45.73046875 33.1015625 C-47.05705757 31.77664291 -47.05705757 31.77664291 -48.41044617 30.42495728 C-49.23172501 29.61005829 -50.05300385 28.7951593 -50.89916992 27.95556641 C-51.62053635 27.23801178 -52.34190277 26.52045715 -53.08512878 25.78115845 C-55.45833347 23.57367131 -57.18701554 22.10090188 -60.45762634 21.69497681 C-63.50385573 22.06045047 -64.46851347 22.79259805 -66.67797852 24.88037109 Z " fill="#bb86ff" transform="translate(189,47)"/>
</svg>
